{
    "asset" : {
        "generator" : "Khronos glTF Blender I/O v1.8.19",
        "version" : "2.0"
    },
    "scene" : 0,
    "scenes" : [
        {
            "name" : "Scene",
            "nodes" : [
                0
            ]
        }
    ],
    "nodes" : [
        {
            "mesh" : 0,
            "name" : "\u7535\u585407"
        }
    ],
    "materials" : [
        {
            "doubleSided" : true,
            "name" : "Mat3d66-4388229-1-1187.007",
            "pbrMetallicRoughness" : {
                "baseColorFactor" : [
                    0.07857143878936768,
                    0.07857143878936768,
                    0.07857143878936768,
                    1
                ],
                "metallicFactor" : 0,
                "roughnessFactor" : 0.5
            }
        }
    ],
    "meshes" : [
        {
            "name" : "Obj3d66-4388229-11-873",
            "primitives" : [
                {
                    "attributes" : {
                        "POSITION" : 0,
                        "NORMAL" : 1,
                        "TEXCOORD_0" : 2
                    },
                    "indices" : 3,
                    "material" : 0
                }
            ]
        }
    ],
    "accessors" : [
        {
            "bufferView" : 0,
            "componentType" : 5126,
            "count" : 73491,
            "max" : [
                15.598864555358887,
                83.78901672363281,
                14.374197006225586
            ],
            "min" : [
                -15.598864555358887,
                0,
                -14.374197006225586
            ],
            "type" : "VEC3"
        },
        {
            "bufferView" : 1,
            "componentType" : 5126,
            "count" : 73491,
            "type" : "VEC3"
        },
        {
            "bufferView" : 2,
            "componentType" : 5126,
            "count" : 73491,
            "type" : "VEC2"
        },
        {
            "bufferView" : 3,
            "componentType" : 5125,
            "count" : 94080,
            "type" : "SCALAR"
        }
    ],
    "bufferViews" : [
        {
            "buffer" : 0,
            "byteLength" : 881892,
            "byteOffset" : 0
        },
        {
            "buffer" : 0,
            "byteLength" : 881892,
            "byteOffset" : 881892
        },
        {
            "buffer" : 0,
            "byteLength" : 587928,
            "byteOffset" : 1763784
        },
        {
            "buffer" : 0,
            "byteLength" : 376320,
            "byteOffset" : 2351712
        }
    ],
    "buffers" : [
        {
            "byteLength" : 2728032,
            "uri" : "data:application/octet-stream;base64,"
        }
    ]
}
